<mxfile host="app.diagrams.net" modified="2024-06-04T09:39:38.079Z" agent="Mozilla/5.0 (Windows NT 10.0; Win64; x64) AppleWebKit/537.36 (KHTML, like Gecko) Chrome/125.0.0.0 Safari/537.36" version="24.4.13" etag="JcX6-czWJu6IVYF0EY_N" type="github">
  <diagram name="Page-1" id="B1V6LEd5zB0XsslDOu6Y">
    <mxGraphModel>
      <root>
        <mxCell id="0" />
        <mxCell id="1" parent="0" />
      </root>
    </mxGraphModel>
  </diagram>
</mxfile>
